<?xml version="1.0" encoding="iso-8859-1"?>
<!-- Generator: Adobe Illustrator 17.1.0, SVG Export Plug-In . SVG Version: 6.00 Build 0)  -->
<!DOCTYPE svg PUBLIC "-//W3C//DTD SVG 1.1//EN" "http://www.w3.org/Graphics/SVG/1.1/DTD/svg11.dtd">
<svg version="1.1" id="Capa_1" xmlns="http://www.w3.org/2000/svg" xmlns:xlink="http://www.w3.org/1999/xlink" x="0px" y="0px"
	 viewBox="0 0 418.227 418.227" style="enable-background:new 0 0 418.227 418.227;" xml:space="preserve">
<g>
	<path d="M228.648,118.91V89.894h15.172c3.859,0,7-3.14,7-7V36.896c0-3.86-3.141-7-7-7H143.481c-3.86,0-7,3.14-7,7v7.999H99.687
		c-24.813,0-45,20.187-45,45V271.3c0,8.284,6.716,15,15,15s15-6.716,15-15V89.895c0-8.271,6.729-15,15-15h36.793v7.999
		c0,3.86,3.14,7,7,7h15.172v29.016c-33.607,13.817-57.333,46.904-57.333,85.434v190.465c0,17.182,13.909,23.418,23.258,23.418
		h137.216c8.365,0,24.187-4.895,24.187-23.418V204.344C285.98,165.814,262.255,132.727,228.648,118.91z"/>
	<path d="M362.416,6.344C362.381,2.787,359.641,0,356.178,0c-0.842,0-1.68,0.164-2.489,0.486l-74.229,29.533
		c-2.918,1.162-5.019,4.285-4.993,7.424l0.357,45.997c0.025,3.163,2.198,6.251,5.165,7.343l74.969,27.602
		c0.763,0.281,1.548,0.423,2.334,0.423c1.684,0,3.252-0.648,4.418-1.827c1.199-1.212,1.849-2.864,1.83-4.651L362.416,6.344z"/>
</g>
<g>
</g>
<g>
</g>
<g>
</g>
<g>
</g>
<g>
</g>
<g>
</g>
<g>
</g>
<g>
</g>
<g>
</g>
<g>
</g>
<g>
</g>
<g>
</g>
<g>
</g>
<g>
</g>
<g>
</g>
</svg>
